<svg id="图层_1" data-name="图层 1" xmlns="http://www.w3.org/2000/svg" viewBox="0 0 128 128"><defs><style>.cls-1,.cls-2,.cls-3{fill:#fff;}.cls-1{opacity:0.4;}.cls-2{opacity:0.3;}.cls-3{opacity:0;}</style></defs><title>logo-portfolio</title><polygon points="64.56 0 42.54 29.7 64.04 38.53 86.06 29.31 64.56 0"/><polygon class="cls-1" points="64.56 0 42.54 29.7 64.04 38.53 86.06 29.31 64.56 0"/><polygon points="37.55 36.61 52.91 42.75 25 54.02 37.55 36.61"/><polygon class="cls-2" points="37.55 36.61 52.91 42.75 25 54.02 37.55 36.61"/><polyline points="74.41 42.75 91.18 36.1 105.13 55.17"/><polyline class="cls-2" points="74.41 42.75 91.18 36.1 105.13 55.17"/><path d="M63.53,47l-44,17.41s-3.84,9.82-2.62,18.67c-.06,0-.19,42,47.68,44.95,0,0,43.39.38,47.52-44.82,0,0,1.37-6.64-2-17.65C110.16,65.54,63.53,47,63.53,47Z"/><path class="cls-3" d="M63.53,47l-44,17.41s-3.84,9.82-2.62,18.67c-.06,0-.19,42,47.68,44.95,0,0,43.39.38,47.52-44.82,0,0,1.37-6.64-2-17.65C110.16,65.54,63.53,47,63.53,47Z"/></svg>